<svg width="21" height="17" viewBox="0 0 21 17" fill="none" xmlns="http://www.w3.org/2000/svg">
<path d="M17.1999 9.9729C18.4012 10.8705 19.4749 13.1304 19.4749 14.5228C19.4749 14.9566 19.1584 15.3083 18.768 15.3083H18.3374M13.7874 6.29382C14.5645 5.84426 15.0874 5.00402 15.0874 4.04165C15.0874 3.07928 14.5645 2.23904 13.7874 1.78948M1.98183 15.3083H14.4346C14.8251 15.3083 15.1416 14.9566 15.1416 14.5228C15.1416 11.7961 12.8635 9.58557 8.20823 9.58557C3.553 9.58557 1.2749 11.7961 1.2749 14.5228C1.2749 14.9566 1.5914 15.3083 1.98183 15.3083ZM10.8082 4.04165C10.8082 5.47759 9.64417 6.64165 8.20823 6.64165C6.77229 6.64165 5.60823 5.47759 5.60823 4.04165C5.60823 2.60571 6.77229 1.44165 8.20823 1.44165C9.64417 1.44165 10.8082 2.60571 10.8082 4.04165Z" stroke="#F2ECB6" stroke-width="2" stroke-linecap="round"/>
</svg>
